<?xml version="1.0" encoding="UTF-8" standalone="no"?>
<svg
   width="247"
   height="72"
   viewBox="0 0 247 72"
   fill="none"
   version="1.1"
   id="svg42"
   sodipodi:docname="quiver-combinatorics-tools-logo.svg"
   inkscape:version="1.4.4 (dcaf3e7d9e, 2026-05-05)"
   xmlns:inkscape="http://www.inkscape.org/namespaces/inkscape"
   xmlns:sodipodi="http://sodipodi.sourceforge.net/DTD/sodipodi-0.dtd"
   xmlns="http://www.w3.org/2000/svg"
   xmlns:svg="http://www.w3.org/2000/svg">
  <sodipodi:namedview
     id="namedview42"
     pagecolor="#ffffff"
     bordercolor="#000000"
     borderopacity="0.25"
     inkscape:showpageshadow="2"
     inkscape:pageopacity="0.0"
     inkscape:pagecheckerboard="0"
     inkscape:deskcolor="#d1d1d1"
     showguides="true"
     inkscape:zoom="2.3201758"
     inkscape:cx="89.648378"
     inkscape:cy="106.24195"
     inkscape:window-width="1920"
     inkscape:window-height="1043"
     inkscape:window-x="0"
     inkscape:window-y="0"
     inkscape:window-maximized="1"
     inkscape:current-layer="g30" />
  <defs
     id="defs42">
    <linearGradient
       id="paint0_linear_8_5318"
       x1="24.2964"
       y1="32.4649"
       x2="85.7753"
       y2="63.8853"
       gradientUnits="userSpaceOnUse">
      <stop
         stop-color="#195568"
         id="stop30" />
      <stop
         offset="0.3"
         stop-color="#3AAA35"
         id="stop31" />
      <stop
         offset="0.31"
         stop-color="#42AB32"
         id="stop32" />
      <stop
         offset="0.34"
         stop-color="#73B225"
         id="stop33" />
      <stop
         offset="0.37"
         stop-color="#9DB919"
         id="stop34" />
      <stop
         offset="0.41"
         stop-color="#C0BE10"
         id="stop35" />
      <stop
         offset="0.44"
         stop-color="#DAC209"
         id="stop36" />
      <stop
         offset="0.48"
         stop-color="#EDC504"
         id="stop37" />
      <stop
         offset="0.52"
         stop-color="#F9C701"
         id="stop38" />
      <stop
         offset="0.56"
         stop-color="#FDC800"
         id="stop39" />
      <stop
         offset="0.67"
         stop-color="#F18F34"
         id="stop40" />
      <stop
         offset="0.89"
         stop-color="#E95F32"
         id="stop41" />
      <stop
         offset="1"
         stop-color="#E3312D"
         id="stop42" />
    </linearGradient>
    <clipPath
       id="clip0_8_5318">
      <rect
         width="247"
         height="72"
         fill="white"
         id="rect42" />
    </clipPath>
  </defs>
  <text
     xml:space="preserve"
     style="font-size:32px;writing-mode:lr-tb;direction:ltr;fill:#000000;stroke-width:0.978575"
     x="92.1092"
     y="44.008682"
     id="text42"
     transform="scale(1.0218945,0.9785746)"><tspan
       sodipodi:role="line"
       id="tspan42"
       x="92.1092"
       y="44.008682"
       style="font-style:normal;font-variant:normal;font-weight:bold;font-stretch:normal;font-size:53.3333px;font-family:'Arial Black';-inkscape-font-specification:'Arial Black,  Bold';stroke:#ffffff;stroke-width:0.978575;stroke-opacity:1"><tspan
         style="font-size:42.6667px"
         id="tspan2">uive</tspan><tspan
         style="font-size:42.6667px"
         id="tspan3">r</tspan></tspan><tspan
       sodipodi:role="line"
       x="92.1092"
       y="91.170296"
       style="font-style:normal;font-variant:normal;font-weight:normal;font-stretch:normal;font-size:32px;font-family:UnYetgul;-inkscape-font-specification:'UnYetgul Bold';stroke:#ffffff;stroke-width:0.978575;stroke-opacity:0.791051"
       id="tspan59" /></text>
  <path
     style="fill:#000000;fill-opacity:0;stroke-width:0.197755"
     d="m 102.8407,12.938892 c 0.38444,-1.081045 1.57548,-4.444644 2.64676,-7.4746651 l 1.94779,-5.5091297 h 1.82327 1.82327 l 2.62206,7.4739968 2.62206,7.473996 -1.19386,-0.05819 -1.19386,-0.05819 -0.576,-1.730355 -0.576,-1.730355 h -3.52663 -3.52663 l -0.576,1.730355 -0.576,1.730355 -1.2196,0.05886 -1.21961,0.05886 z m 9.15249,-3.837633 c -0.33354,-1.289483 -2.60717,-7.6630004 -2.73363,-7.6630004 -0.0907,0 -0.71932,1.6685566 -1.39696,3.7079036 -0.67764,2.0393468 -1.27298,3.8191408 -1.323,3.9550968 -0.07,0.190409 0.55326,0.247194 2.7133,0.247194 2.14565,0 2.78921,-0.05805 2.74029,-0.247194 z"
     id="path42" />
  <path
     style="fill:#000000;fill-opacity:0;stroke-width:0.0900805"
     d="m 102.1304,14.758702 c 0.0575,-0.149882 5.00581,-14.1443291 5.17568,-14.6375189 l 0.13186,-0.3828422 h 1.81733 1.81733 l 2.63319,7.5083191 c 1.44825,4.129575 2.63318,7.534618 2.63318,7.566762 0,0.03214 -0.54267,0.05844 -1.20594,0.05844 h -1.20593 l -0.43074,-1.238607 c -0.2369,-0.681234 -0.51539,-1.481824 -0.61886,-1.77909 l -0.18813,-0.540483 -3.42239,-0.02345 -3.42239,-0.02345 -0.61944,1.802535 -0.61944,1.802535 h -1.25937 c -0.97382,0 -1.24952,-0.02566 -1.21594,-0.113164 z m 9.83309,-5.584428 c -0.5337,-1.696436 -2.63841,-7.7354947 -2.69597,-7.7355498 -0.065,-6.22e-5 -2.73876,7.6657838 -2.7452,7.8706708 -10e-4,0.03716 1.23696,0.06756 2.7514,0.06756 h 2.75353 z"
     id="path43" />
  <path
     style="fill:#000000;fill-opacity:0;stroke-width:0.0900805"
     d="m 102.1304,14.758702 c 0.0575,-0.149882 5.00581,-14.1443291 5.17568,-14.6375189 l 0.13186,-0.3828422 h 1.81733 1.81733 l 2.63319,7.5083191 c 1.44825,4.129575 2.63318,7.534618 2.63318,7.566762 0,0.03214 -0.54267,0.05844 -1.20594,0.05844 h -1.20593 l -0.43074,-1.238607 c -0.2369,-0.681234 -0.51539,-1.481824 -0.61886,-1.77909 l -0.18813,-0.540483 -3.42239,-0.02345 -3.42239,-0.02345 -0.61944,1.802535 -0.61944,1.802535 h -1.25937 c -0.97382,0 -1.24952,-0.02566 -1.21594,-0.113164 z m 9.83309,-5.584428 c -0.5337,-1.696436 -2.63841,-7.7354947 -2.69597,-7.7355498 -0.065,-6.22e-5 -2.73876,7.6657838 -2.7452,7.8706708 -10e-4,0.03716 1.23696,0.06756 2.7514,0.06756 h 2.75353 z"
     id="path44" />
  <rect
     style="fill:#000000;fill-opacity:1;stroke-width:1.50791"
     id="rect57"
     width="33.135151"
     height="40.689568"
     x="44.068073"
     y="10.377015" />
  <g
     clip-path="url(#clip0_8_5318)"
     id="g30"
     transform="matrix(1.4602709,0,0,1.5112044,-31.314539,-52.396929)">
    <path
       d="m 52.0638,36.0037 c 11.534456,-19.936716 11.542489,-19.95011 0,-0.0074 z M 41.651,54.0019 4.6492373,79.616248 Z M 72.8893,36.0037 H 52.0638 L 41.651,54.0019 52.0638,72 H 72.8893 L 83.302,54.0019 Z m -4.6007,26.7153 1.8061,3.7688 h -3.352 l -1.4642,-3.0417 c -0.3939,0.0593 -0.7878,0.0593 -1.2115,0.0593 h -2.5939 c -5.5519,0 -8.5992,-3.1233 -8.5992,-9.4813 0,-6.358 3.0696,-9.511 8.5992,-9.511 h 2.5939 c 5.5223,0 8.5993,3.1234 8.5993,9.511 0,4.5033 -1.5236,7.404 -4.3702,8.6949 z m 1.0183,-8.6949 c 0,3.0121 -0.7581,4.8371 -2.4824,5.6532 l -1.6649,-3.5166 h -3.352 l 1.9176,4.0211 h -2.2595 c -3.6939,0 -5.2695,-1.8251 -5.2695,-6.1651 0,-4.34 1.6054,-6.1948 5.2695,-6.1948 h 2.5939 c 3.6642,0 5.2473,1.8548 5.2473,6.1948 z"
       fill="url(#paint0_linear_8_5318)"
       id="path1"
       sodipodi:nodetypes="cccccccccccccccccssssssccsccccssssss"
       style="fill:url(#paint0_linear_8_5318)" />
    <path
       style="fill:#000000;fill-opacity:0;stroke-width:0.124242"
       d="m 33.202271,33.327881 c 0.745226,-1.452076 3.333558,-6.511827 5.751849,-11.243889 2.41829,-4.732062 4.426961,-8.603699 4.463713,-8.603638 0.03675,6.1e-5 0.19079,0.340922 0.342308,0.757469 l 0.275487,0.757357 -5.359495,10.486421 -5.359495,10.48642 h -0.734662 -0.734661 z"
       id="path47" />
    <path
       style="fill:#000000;fill-opacity:0;stroke-width:0.124242"
       d="m 33.202271,33.327881 c 0.745226,-1.452076 3.333558,-6.511827 5.751849,-11.243889 2.41829,-4.732062 4.426961,-8.603699 4.463713,-8.603638 0.03675,6.1e-5 0.19079,0.340922 0.342308,0.757469 l 0.275487,0.757357 -5.359495,10.486421 -5.359495,10.48642 h -0.734662 -0.734661 z"
       id="path48" />
    <path
       style="fill:#000000;fill-opacity:0;stroke-width:0.124242"
       d="m 33.202271,33.327881 c 0.745226,-1.452076 3.333558,-6.511827 5.751849,-11.243889 2.41829,-4.732062 4.426961,-8.603699 4.463713,-8.603638 0.03675,6.1e-5 0.19079,0.340922 0.342308,0.757469 l 0.275487,0.757357 -5.359495,10.486421 -5.359495,10.48642 h -0.734662 -0.734661 z"
       id="path49" />
    <path
       style="fill:#000000;fill-opacity:0;stroke-width:0.124242"
       d="m 33.202271,33.327881 c 0.745226,-1.452076 3.333558,-6.511827 5.751849,-11.243889 2.41829,-4.732062 4.426961,-8.603699 4.463713,-8.603638 0.03675,6.1e-5 0.19079,0.340922 0.342308,0.757469 l 0.275487,0.757357 -5.359495,10.486421 -5.359495,10.48642 h -0.734662 -0.734661 z"
       id="path50" />
    <path
       id="path51"
       style="fill:#000000;fill-opacity:0;stroke-width:0.124242"
       d="m 43.916016,14.847656 c -0.01105,0 -0.235733,0.418543 -0.613282,1.138672 0.317863,0.393307 0.612383,0.804516 0.876954,1.222656 l 0.384765,-0.753906 -0.283203,-0.804687 c -0.146289,-0.414383 -0.299729,-0.757477 -0.355469,-0.798829 -4.37e-4,-2.6e-4 -0.0027,-0.003 -0.0039,-0.0039 h -0.002 -0.002 z m -1.123047,2.117188 c -0.717613,1.378986 -1.714302,3.308273 -2.796875,5.412109 0.576794,-0.09322 1.151594,-0.2017 1.716797,-0.341797 l 1.927734,-3.771484 C 43.39365,17.821675 43.108273,17.385314 42.792969,16.964844 Z m -1.669922,6.224609 c -0.43958,0.08756 -0.881839,0.164055 -1.324219,0.232422 0.279538,0.237367 0.562612,0.46889 0.84961,0.697266 z m -2.033203,0.949219 c -2.879331,5.605686 -5.978516,11.685823 -5.978516,11.767578 v 0.002 0.002 0.002 h 0.002 l 0.002,0.002 0.002,0.002 c 0.05585,0.03222 0.374188,0.04578 0.751953,0.02734 l 0.757812,-0.03711 4.96875,-9.726562 0.585938,-1.146485 c -0.369842,-0.290696 -0.73402,-0.5892 -1.091797,-0.894531 z" />
    <rect
       style="fill:#000000;fill-opacity:0"
       id="rect54"
       width="34.571384"
       height="17.804262"
       x="32.66996"
       y="19.187119" />
    <rect
       style="fill:#1a1a1a;fill-opacity:0"
       id="rect55"
       width="39.584236"
       height="22.298542"
       x="35.954239"
       y="5.1857076" />
    <rect
       style="fill:#1a1a1a;fill-opacity:0"
       id="rect56"
       width="22.817114"
       height="8.6428461"
       x="45.461369"
       y="15.72998" />
  </g>
  <path
     style="fill:#000000;fill-opacity:0;stroke-width:0.0900805"
     d="m 102.1304,14.758702 c 0.0575,-0.149882 5.00581,-14.1443291 5.17568,-14.6375189 l 0.13186,-0.3828422 h 1.81733 1.81733 l 2.63319,7.5083191 c 1.44825,4.129575 2.63318,7.534618 2.63318,7.566762 0,0.03214 -0.54267,0.05844 -1.20594,0.05844 h -1.20593 l -0.43074,-1.238607 c -0.2369,-0.681234 -0.51539,-1.481824 -0.61886,-1.77909 l -0.18813,-0.540483 -3.42239,-0.02345 -3.42239,-0.02345 -0.61944,1.802535 -0.61944,1.802535 h -1.25937 c -0.97382,0 -1.24952,-0.02566 -1.21594,-0.113164 z m 9.83309,-5.584428 c -0.5337,-1.696436 -2.63841,-7.7354947 -2.69597,-7.7355498 -0.065,-6.22e-5 -2.73876,7.6657838 -2.7452,7.8706708 -10e-4,0.03716 1.23696,0.06756 2.7514,0.06756 h 2.75353 z"
     id="path45" />
  <path
     style="fill:#000000;fill-opacity:0;stroke-width:0.0900805"
     d="m 102.1304,14.758702 c 0.0575,-0.149882 5.00581,-14.1443291 5.17568,-14.6375189 l 0.13186,-0.3828422 h 1.81733 1.81733 l 2.63319,7.5083191 c 1.44825,4.129575 2.63318,7.534618 2.63318,7.566762 0,0.03214 -0.54267,0.05844 -1.20594,0.05844 h -1.20593 l -0.43074,-1.238607 c -0.2369,-0.681234 -0.51539,-1.481824 -0.61886,-1.77909 l -0.18813,-0.540483 -3.42239,-0.02345 -3.42239,-0.02345 -0.61944,1.802535 -0.61944,1.802535 h -1.25937 c -0.97382,0 -1.24952,-0.02566 -1.21594,-0.113164 z m 9.83309,-5.584428 c -0.5337,-1.696436 -2.63841,-7.7354947 -2.69597,-7.7355498 -0.065,-6.22e-5 -2.73876,7.6657838 -2.7452,7.8706708 -10e-4,0.03716 1.23696,0.06756 2.7514,0.06756 h 2.75353 z"
     id="path46" />
  <text
     xml:space="preserve"
     style="font-style:normal;font-variant:normal;font-weight:bold;font-stretch:normal;font-size:18.6667px;font-family:UnYetgul;-inkscape-font-specification:'UnYetgul Bold';writing-mode:lr-tb;direction:ltr;fill:#000000;stroke:#ffffff;stroke-opacity:0.791051"
     x="25.802227"
     y="70.786461"
     id="text1"><tspan
       sodipodi:role="line"
       id="tspan1"
       x="25.802227"
       y="70.786461"
       style="font-style:normal;font-variant:normal;font-weight:bold;font-stretch:normal;font-size:18.6667px;font-family:'Arial Black';-inkscape-font-specification:'Arial Black,  Bold';stroke:#ffffff;stroke-opacity:1">CombinatoricsTools</tspan></text>
</svg>
